<?xml version="1.0" encoding="UTF-8"?>
<!DOCTYPE svg PUBLIC "-//W3C//DTD SVG 1.1//EN" "http://www.w3.org/Graphics/SVG/1.1/DTD/svg11.dtd">
<!-- Creator: CorelDRAW X7 -->
<svg xmlns="http://www.w3.org/2000/svg" xml:space="preserve" width="8.5in" height="11in" version="1.1" style="shape-rendering:geometricPrecision; text-rendering:geometricPrecision; image-rendering:optimizeQuality; fill-rule:evenodd; clip-rule:evenodd"
viewBox="0 0 8500 11000"
 xmlns:xlink="http://www.w3.org/1999/xlink">
 <defs>
  <style type="text/css">
   <![CDATA[
    .fil3 {fill:#3F3F41;fill-rule:nonzero}
    .fil0 {fill:url(#id0);fill-rule:nonzero}
    .fil1 {fill:url(#id1);fill-rule:nonzero}
    .fil2 {fill:url(#id2);fill-rule:nonzero}
   ]]>
  </style>
  <linearGradient id="id0" gradientUnits="userSpaceOnUse" x1="4767.51" y1="3539.75" x2="4767.51" y2="6890.79">
   <stop offset="0" style="stop-opacity:1; stop-color:#00AFC3"/>
   <stop offset="1" style="stop-opacity:1; stop-color:#3150AF"/>
  </linearGradient>
  <linearGradient id="id1" gradientUnits="userSpaceOnUse" x1="3832.44" y1="3539.75" x2="3832.44" y2="6975.91">
   <stop offset="0" style="stop-opacity:1; stop-color:#3150AF"/>
   <stop offset="1" style="stop-opacity:1; stop-color:#00AFC3"/>
  </linearGradient>
  <linearGradient id="id2" gradientUnits="userSpaceOnUse" x1="4297.25" y1="2464.6" x2="4297.25" y2="3322.3">
   <stop offset="0" style="stop-opacity:1; stop-color:#F9BD3F"/>
   <stop offset="1" style="stop-opacity:1; stop-color:#EF7728"/>
  </linearGradient>
 </defs>
 <g id="Layer_x0020_1">
  <metadata id="CorelCorpID_0Corel-Layer"/>
  <g id="_2188753316224">
   <path class="fil0" d="M4163 3522c0,0 980,0 1146,0 165,0 273,134 273,285 0,151 0,2125 0,2420 0,216 -142,349 -273,393l-961 323c0,0 -293,-256 -395,-625 0,0 125,166 327,166 240,0 447,-184 447,-413 0,-230 2,-1332 2,-1796 0,-464 -409,-720 -566,-753z"/>
   <path class="fil1" d="M4290 6958c0,0 -426,-391 -426,-871 0,-481 0,-1534 0,-1821 0,-288 320,-372 433,-372 113,0 255,70 348,179 0,0 -82,-302 -346,-431 -264,-130 -444,-120 -540,-120 -97,0 -324,-1 -453,-1 -129,0 -286,82 -286,303 0,220 0,2240 0,2461 0,221 218,308 310,341 93,33 960,332 960,332z"/>
   <path class="fil2" d="M4730 2868c0,240 -194,433 -433,433 -239,0 -433,-193 -433,-433 0,-239 194,-432 433,-432 239,0 433,193 433,432z"/>
   <g>
    <path class="fil3" d="M2378 7673c-28,0 -51,-8 -70,-25 -20,-17 -29,-40 -29,-71 0,-28 10,-50 29,-68 20,-18 43,-27 70,-27 25,0 47,8 67,24 19,16 29,40 29,71 0,30 -9,54 -28,71 -20,16 -42,25 -68,25zm96 202l0 0 0 564c0,40 -9,69 -28,89 -18,20 -42,30 -71,30 -28,0 -51,-10 -69,-31 -18,-20 -27,-49 -27,-88l0 -558c0,-39 9,-68 27,-88 18,-19 41,-29 69,-29 29,0 53,10 71,29 19,20 28,47 28,82z"/>
    <path class="fil3" d="M2791 8558c-30,0 -55,-9 -77,-28 -21,-19 -32,-46 -32,-81 0,-29 10,-54 31,-75 20,-21 46,-31 76,-31 30,0 55,10 77,31 21,21 32,46 32,75 0,34 -11,61 -32,80 -22,20 -46,29 -75,29z"/>
    <path class="fil3" d="M3735 8303c0,54 -14,100 -40,138 -26,39 -65,68 -116,88 -51,19 -114,29 -187,29 -70,0 -131,-10 -181,-32 -50,-21 -87,-48 -111,-80 -23,-33 -35,-65 -35,-97 0,-22 7,-40 23,-56 15,-15 34,-22 58,-22 20,0 36,5 47,15 11,10 21,24 31,42 20,35 44,61 72,78 28,17 66,26 114,26 39,0 72,-9 97,-27 25,-17 37,-37 37,-59 0,-35 -13,-60 -39,-75 -26,-16 -69,-31 -128,-46 -68,-16 -122,-34 -165,-52 -42,-18 -76,-43 -101,-73 -25,-30 -38,-67 -38,-111 0,-39 12,-76 35,-111 24,-34 58,-62 104,-83 45,-21 100,-31 165,-31 50,0 96,5 136,16 40,10 74,24 101,42 27,17 47,37 61,59 15,21 22,42 22,62 0,23 -8,41 -23,56 -15,14 -36,21 -64,21 -20,0 -37,-6 -51,-17 -14,-12 -30,-29 -48,-52 -15,-19 -33,-34 -53,-45 -20,-12 -47,-18 -81,-18 -36,0 -65,8 -88,23 -24,15 -35,34 -35,56 0,21 8,37 25,51 18,13 41,24 70,32 29,9 69,19 120,32 61,14 110,32 149,53 38,20 67,44 87,72 20,28 30,60 30,96z"/>
    <path class="fil3" d="M4379 8448c-47,37 -93,64 -137,83 -44,18 -94,27 -149,27 -50,0 -94,-10 -132,-29 -38,-20 -67,-47 -87,-81 -21,-34 -31,-71 -31,-110 0,-54 17,-99 51,-137 34,-38 80,-63 139,-76 13,-3 44,-9 93,-19 49,-10 91,-19 126,-28 35,-8 73,-18 114,-30 -2,-52 -13,-89 -31,-113 -18,-25 -56,-37 -114,-37 -50,0 -87,7 -112,21 -25,14 -47,35 -65,62 -17,28 -30,46 -37,55 -8,9 -24,13 -48,13 -22,0 -41,-7 -57,-21 -16,-14 -24,-32 -24,-54 0,-34 12,-67 37,-100 24,-32 62,-59 113,-80 52,-21 116,-32 193,-32 86,0 153,11 202,31 50,20 84,52 105,96 20,44 30,102 30,175 0,46 0,84 0,116 -1,32 -1,68 -1,107 0,37 6,75 18,115 12,40 18,65 18,77 0,20 -9,38 -28,55 -19,16 -40,24 -64,24 -20,0 -40,-9 -60,-28 -19,-19 -40,-46 -62,-82zm-13 -283l0 0c-28,11 -70,22 -125,34 -54,11 -92,20 -113,25 -21,6 -41,17 -60,33 -19,16 -29,38 -29,67 0,29 11,54 34,75 22,21 51,31 88,31 38,0 74,-8 107,-25 32,-17 56,-39 72,-66 17,-29 26,-78 26,-146l0 -28z"/>
    <path class="fil3" d="M5228 8469l-172 -284 -106 101 0 155c0,38 -10,67 -30,87 -20,20 -42,30 -68,30 -30,0 -54,-10 -71,-30 -17,-20 -26,-49 -26,-89l0 -833c0,-43 8,-76 25,-99 17,-22 41,-34 72,-34 30,0 54,11 71,31 18,21 27,51 27,91l0 474 220 -231c27,-28 47,-48 62,-58 14,-11 31,-16 52,-16 24,0 45,8 61,23 16,16 24,35 24,58 0,29 -26,67 -79,115l-104 95 200 315c15,23 26,41 32,53 7,13 10,24 10,35 0,31 -9,56 -26,73 -16,18 -39,27 -66,27 -24,0 -43,-6 -56,-19 -12,-13 -30,-36 -52,-70z"/>
    <path class="fil3" d="M6038 8448l0 -25c-23,30 -48,54 -74,74 -25,20 -54,35 -84,45 -31,10 -66,15 -105,15 -47,0 -89,-10 -127,-30 -37,-19 -66,-46 -87,-80 -24,-42 -36,-102 -36,-179l0 -387c0,-40 9,-69 26,-88 18,-19 41,-29 70,-29 30,0 54,10 72,29 18,20 27,49 27,88l0 312c0,46 4,84 12,114 7,31 21,55 41,73 20,17 46,26 80,26 33,0 64,-10 93,-30 29,-19 51,-45 64,-76 11,-28 17,-88 17,-182l0 -237c0,-39 9,-68 27,-88 18,-19 42,-29 71,-29 29,0 52,10 70,29 17,19 26,48 26,88l0 566c0,37 -8,65 -25,83 -17,19 -39,28 -66,28 -26,0 -48,-9 -66,-29 -17,-19 -26,-46 -26,-81z"/>
   </g>
  </g>
 </g>
</svg>
