<?xml version="1.0" encoding="UTF-8"?>
<!DOCTYPE svg PUBLIC "-//W3C//DTD SVG 1.1//EN" "http://www.w3.org/Graphics/SVG/1.1/DTD/svg11.dtd">
<!-- Creator: CorelDRAW X7 -->
<svg xmlns="http://www.w3.org/2000/svg" xml:space="preserve" width="8.26772in" height="2.00307in" version="1.1" style="shape-rendering:geometricPrecision; text-rendering:geometricPrecision; image-rendering:optimizeQuality; fill-rule:evenodd; clip-rule:evenodd"
viewBox="0 0 8268 2003"
 xmlns:xlink="http://www.w3.org/1999/xlink">
 <defs>
  <style type="text/css">
   <![CDATA[
    .fil0 {fill:#00AFEF}
    .fil1 {fill:#284D92}
    .fil2 {fill:#2C407E}
   ]]>
  </style>
 </defs>
 <g id="Layer_x0020_1">
  <metadata id="CorelCorpID_0Corel-Layer"/>
  <path class="fil0" d="M721 471l565 0c304,0 418,154 400,380 -29,372 -254,578 -553,578l-151 0c-40,0 -68,27 -79,101l-65 427c-4,28 -19,44 -41,46l-354 0c-33,0 -45,-25 -36,-81l216 -1370c9,-54 39,-81 98,-81z"/>
  <path class="fil1" d="M3174 446c191,0 367,103 343,361 -29,306 -194,476 -453,477l-226 0c-32,0 -48,26 -56,81l-44 278c-7,42 -28,63 -60,63l-210 0c-34,0 -46,-22 -38,-70l174 -1115c8,-54 29,-75 66,-75l504 0zm-343 597l0 0 172 0c107,-4 178,-78 185,-212 5,-83 -51,-142 -140,-142l-161 1 -56 353zm1258 577l0 0c19,-17 38,-26 36,-5l-7 52c-4,27 7,41 32,41l187 0c31,0 47,-13 55,-61l115 -723c6,-37 -3,-55 -31,-55l-205 0c-19,0 -28,11 -33,39l-7 45c-4,23 -15,27 -25,4 -35,-83 -124,-120 -248,-118 -289,6 -483,225 -504,506 -16,217 139,387 344,387 149,0 216,-44 291,-112zm-157 -111l0 0c-124,0 -210,-99 -192,-220 18,-122 134,-221 258,-221 124,0 210,99 192,221 -18,121 -134,220 -258,220zm941 -642l0 0 -189 0c-39,0 -55,29 -43,65l236 689 -232 328c-20,28 -5,53 23,53l213 0c32,0 47,-8 63,-31l724 -1039c22,-32 12,-65 -25,-65l-201 -1c-35,0 -49,14 -69,43l-301 438 -135 -439c-8,-27 -28,-41 -64,-41z"/>
  <path class="fil0" d="M6421 446c191,0 367,103 343,361 -29,306 -193,476 -452,477l-226 0c-33,0 -49,26 -57,81l-44 278c-6,42 -28,63 -60,63l-210 0c-34,0 -45,-22 -38,-70l174 -1115c9,-54 29,-75 67,-75l503 0zm-342 597l0 0 171 0c107,-4 178,-78 186,-212 4,-83 -52,-142 -141,-142l-161 1 -55 353zm1257 577l0 0c19,-17 39,-26 36,-5l-7 52c-4,27 7,41 32,41l187 0c32,0 47,-13 55,-61l115 -723c6,-37 -3,-55 -31,-55l-205 0c-19,0 -28,11 -33,39l-7 45c-4,23 -15,27 -25,4 -35,-83 -123,-120 -248,-118 -289,6 -483,225 -504,506 -16,217 140,387 345,387 148,0 215,-44 290,-112zm-157 -111l0 0c-124,0 -210,-99 -192,-220 18,-122 134,-221 258,-221 124,0 211,99 193,221 -19,121 -134,220 -259,220zm863 200l0 0 -216 0c-17,0 -29,-13 -27,-29l190 -1201c3,-17 19,-30 36,-30l216 0c17,0 29,13 26,30l-189 1201c-3,16 -19,29 -36,29z"/>
  <path class="fil1" d="M368 0l566 0c159,0 348,5 474,117 85,74 129,193 119,320 -35,432 -293,674 -640,674l-279 0c-47,0 -78,31 -92,117l-78 495c-5,32 -19,51 -44,53l-349 0c-38,0 -52,-30 -42,-94l251 -1588c10,-64 45,-94 114,-94z"/>
  <path class="fil2" d="M524 1178l99 -626c9,-54 39,-81 98,-81l565 0c94,0 170,15 229,42 -57,384 -306,598 -631,598l-279 0c-37,0 -64,19 -81,67z"/>
 </g>
</svg>
