<?xml version="1.0" encoding="UTF-8"?>
<!DOCTYPE svg PUBLIC "-//W3C//DTD SVG 1.1//EN" "http://www.w3.org/Graphics/SVG/1.1/DTD/svg11.dtd">
<!-- Creator: CorelDRAW -->
<svg xmlns="http://www.w3.org/2000/svg" xml:space="preserve" width="8.5in" height="11in" version="1.1" style="shape-rendering:geometricPrecision; text-rendering:geometricPrecision; image-rendering:optimizeQuality; fill-rule:evenodd; clip-rule:evenodd"
viewBox="0 0 8500 11000"
 xmlns:xlink="http://www.w3.org/1999/xlink"
 enable-background="new 0 0 364.949 521.214"
 xmlns:dc="http://purl.org/dc/elements/1.1/"
 xmlns:cc="http://creativecommons.org/ns#"
 xmlns:rdf="http://www.w3.org/1999/02/22-rdf-syntax-ns#"
 xmlns:svg="http://www.w3.org/2000/svg"
 xmlns:sodipodi="http://sodipodi.sourceforge.net/DTD/sodipodi-0.dtd"
 xmlns:inkscape="http://www.inkscape.org/namespaces/inkscape"
 inkscape:version="0.91 r13725"
 sodipodi:docname="Pertamina_Logo.svg">
 <defs>
  <style type="text/css">
   <![CDATA[
    .fil2 {fill:none}
    .fil0 {fill:#4C3494}
    .fil1 {fill:white}
   ]]>
  </style>
     <clipPath id="id0">
      <path d="M4288 4124c516,0 933,418 933,933 0,515 -417,933 -933,933 -515,0 -933,-418 -933,-933 0,-515 418,-933 933,-933z"/>
     </clipPath>
       <clipPath id="id1">
        <path d="M4288 4124c516,0 933,418 933,933 0,515 -417,933 -933,933 -515,0 -933,-418 -933,-933 0,-515 418,-933 933,-933zm0 363c129,0 248,42 344,113 108,80 186,198 214,333 8,36 12,74 12,113 0,309 -255,559 -570,559 -314,0 -570,-250 -570,-559 0,-39 4,-77 12,-113 28,-135 106,-253 215,-333 95,-71 214,-113 343,-113z"/>
       </clipPath>
       <clipPath id="id2">
        <path d="M4288 4124c516,0 933,418 933,933 0,515 -417,933 -933,933 -515,0 -933,-418 -933,-933 0,-515 418,-933 933,-933z"/>
       </clipPath>
       <clipPath id="id3">
        <path d="M4288 4669c199,0 360,168 360,375 0,208 -161,376 -360,376 -199,0 -360,-168 -360,-376 0,-207 161,-375 360,-375z"/>
       </clipPath>
       <clipPath id="id4">
        <path d="M4288 4124c516,0 933,418 933,933 0,515 -417,933 -933,933 -515,0 -933,-418 -933,-933 0,-515 418,-933 933,-933z"/>
       </clipPath>
 </defs>
 <g id="Layer_x0020_1">
  <metadata id="CorelCorpID_0Corel-Layer"/>
  <g id="OVO.cdr">
   <sodipodi:namedview pagecolor="#ffffff" bordercolor="#666666" borderopacity="1" objecttolerance="10" gridtolerance="10" guidetolerance="10" inkscape:pageopacity="0" inkscape:pageshadow="2" inkscape:window-width="1280" inkscape:window-height="1004" id="namedview198" showgrid="false" fit-margin-top="0" fit-margin-left="0" fit-margin-right="0" fit-margin-bottom="0" inkscape:zoom="8.7486948" inkscape:cx="247.11667" inkscape:cy="40.949792" inkscape:window-x="-8" inkscape:window-y="-8" inkscape:window-maximized="1" inkscape:current-layer="g3"/>
   <sodipodi:namedview id="base" pagecolor="#00ffff" bordercolor="#666666" borderopacity="1.0" inkscape:pageopacity="0" inkscape:pageshadow="2" inkscape:zoom="1.4" inkscape:cx="451.73565" inkscape:cy="-10.201303" inkscape:document-units="px" inkscape:current-layer="layer1" showgrid="false" fit-margin-left="0.3" fit-margin-top="0.3" fit-margin-right="0.3" fit-margin-bottom="0.3" units="px" inkscape:window-width="1920" inkscape:window-height="1001" inkscape:window-x="-9" inkscape:window-y="-9" inkscape:window-maximized="1"/>
   <sodipodi:namedview pagecolor="#ffffff" bordercolor="#666666" borderopacity="1" objecttolerance="10" gridtolerance="10" guidetolerance="10" inkscape:pageopacity="0" inkscape:pageshadow="2" inkscape:window-width="1366" inkscape:window-height="705" id="namedview16" showgrid="false" inkscape:zoom="256" inkscape:cx="1097.6396" inkscape:cy="254.7006" inkscape:window-x="-8" inkscape:window-y="-8" inkscape:window-maximized="1" inkscape:current-layer="svg6596"/>
   <g>
    <path class="fil0" d="M4001 6265l229 0 1 92 -57 0 134 317 132 -317 -58 0 0 -92 183 0 0 52 -221 516c-53,0 -88,-19 -107,-60l-181 -416 -55 0 0 -92zm-315 -16c159,0 289,130 289,290 0,161 -130,291 -289,291 -160,0 -289,-130 -289,-291 0,-160 129,-290 289,-290zm-1 95c101,0 182,88 182,197 0,110 -81,198 -182,198 -101,0 -182,-88 -182,-198 0,-109 81,-197 182,-197zm1206 -95c159,0 288,130 288,290 0,161 -129,291 -288,291 -160,0 -289,-130 -289,-291 0,-160 129,-290 289,-290zm-1 95c100,0 182,88 182,197 0,110 -82,198 -182,198 -101,0 -182,-88 -182,-198 0,-109 81,-197 182,-197z"/>
    <path class="fil1" d="M4288 4124c516,0 933,418 933,933 0,515 -417,933 -933,933 -515,0 -933,-418 -933,-933 0,-515 418,-933 933,-933z"/>
    <g style="clip-path:url(#id0)">
     <g>
      <g>
      </g>
      <g style="clip-path:url(#id1)">
       <image x="3337" y="4106" width="1902" height="1902" xlink:href="OVO_Images\OVO_ImgID1.png"/>
      </g>
      <g style="clip-path:url(#id2)">
      </g>
      <g style="clip-path:url(#id3)">
       <image x="3337" y="4106" width="1902" height="1902" xlink:href="OVO_Images\OVO_ImgID2.png"/>
      </g>
      <g style="clip-path:url(#id4)">
      </g>
     </g>
    </g>
    <path class="fil2" d="M4288 4124c516,0 933,418 933,933 0,515 -417,933 -933,933 -515,0 -933,-418 -933,-933 0,-515 418,-933 933,-933z"/>
   </g>
  </g>
 </g>
</svg>
