<svg width="7" height="15" viewBox="0 0 7 15" fill="none" xmlns="http://www.w3.org/2000/svg">
<path d="M1.78436 14.3967V3.99194C1.78436 3.33925 1.88674 2.75694 2.09151 2.24502C2.30908 1.7331 2.64822 1.33637 3.10895 1.05481C3.56968 0.760458 4.17118 0.613281 4.91346 0.613281C5.25901 0.613281 5.57896 0.645276 5.87331 0.709266C6.18046 0.773256 6.43642 0.850044 6.64119 0.93963L6.18046 2.53298C5.84771 2.41779 5.51497 2.3602 5.18222 2.3602C4.79828 2.3602 4.50393 2.48818 4.29916 2.74414C4.09439 3.0001 3.99201 3.40324 3.99201 3.95355V14.3967H1.78436ZM0.382984 6.71791V5.06697L1.91874 4.97099H5.83492V6.71791H0.382984Z" fill="#192B3E"/>
</svg>
