<svg width="35" height="43" viewBox="0 0 35 43" fill="none" xmlns="http://www.w3.org/2000/svg">
<path fill-rule="evenodd" clip-rule="evenodd" d="M23.2739 15.2852C23.4249 14.3692 23.5069 13.3988 23.5069 12.3895C23.5069 9.26341 22.7201 6.51007 21.5328 4.59026C20.3302 2.64552 18.8794 1.77182 17.5546 1.77182C16.2298 1.77182 14.779 2.64552 13.5763 4.59026C12.3891 6.51007 11.6023 9.26341 11.6023 12.3895C11.6023 13.3988 11.6843 14.3692 11.8353 15.2852H10.2068C10.0674 14.3569 9.99352 13.3872 9.99352 12.3895C9.99352 5.63704 13.3787 0.163086 17.5546 0.163086C21.7304 0.163086 25.1157 5.63704 25.1157 12.3895C25.1157 13.3872 25.0418 14.3569 24.9023 15.2852H23.2739Z" fill="#FFBB0E"/>
<path d="M6.69192 15.2853H27.2352L34.2969 40.6689H0.272141L6.69192 15.2853Z" fill="white"/>
<path d="M22.6607 38.1452C20.6946 39.0481 18.7386 39.4422 16.7927 39.3275C14.8533 39.1956 13.0963 38.6177 11.5218 37.5939C9.94732 36.5702 8.74263 35.1493 7.90777 33.3314C7.29374 31.9943 6.97475 30.6283 6.95082 29.2333C6.93873 27.8328 7.19532 26.4865 7.72059 25.1943C8.24047 23.8904 8.99998 22.7179 9.9991 21.6767C10.9928 20.6239 12.2004 19.7711 13.6217 19.1184C15.5167 18.2481 17.3554 17.8795 19.1376 18.0126C20.9262 18.1285 22.5351 18.6962 23.9642 19.7158C25.4052 20.7299 26.5485 22.1576 27.3942 23.999C27.4642 24.1515 27.5202 24.2891 27.5622 24.4118C27.6107 24.5173 27.6872 24.7307 27.7917 25.052L13.8451 31.4568C14.2652 32.3717 14.8388 33.074 15.5657 33.5639C16.3045 34.0483 17.1418 34.31 18.0776 34.349C19.008 34.3761 19.9765 34.1586 20.9833 33.6962C21.9308 33.2611 22.6824 32.6958 23.2379 32.0004C23.8053 31.2996 24.2434 30.3954 24.5522 29.2878L29.3754 29.4375C29.1905 31.2834 28.5049 32.9759 27.3185 34.5149C26.1321 36.0539 24.5795 37.264 22.6607 38.1452ZM12.6671 28.3763L21.1238 24.4926C20.6876 23.855 20.1583 23.3738 19.5358 23.049C18.9252 22.7187 18.2618 22.5547 17.5457 22.5569C16.8296 22.5591 16.0985 22.7315 15.3523 23.0742C14.5587 23.4387 13.9219 23.8945 13.4417 24.4416C12.9615 24.9888 12.6536 25.5988 12.5181 26.2718C12.3825 26.9447 12.4322 27.6462 12.6671 28.3763Z" fill="#FFBB0E"/>
</svg>
