<svg width="111" height="48" viewBox="0 0 111 48" fill="none" xmlns="http://www.w3.org/2000/svg">
<path fill-rule="evenodd" clip-rule="evenodd" d="M0 0H111V2.43344L105 5.89754L110.451 9.04457L105 12.1916L110.451 15.3387L105 18.4857L110.451 21.6329L105 24.78L110.451 27.9271L105 31.0742L110.451 34.2214L105 37.3685L110.451 40.5156L105 43.6627L111 47.1268V48H0V45.4075L5.64709 42.1471L0.450958 39.1471L5.64709 36.1471L0.450958 33.1471L5.64709 30.1471L0.450958 27.1471L5.64709 24.1471L0.450958 21.1471L5.64709 18.1471L0.450958 15.1471L5.64709 12.1471L0.450958 9.14713L5.64709 6.14709L0 2.88676V0Z" fill="white"/>
<path fill-rule="evenodd" clip-rule="evenodd" d="M111 2.43344V0H0V2.88676L5.64709 6.14709L0.450958 9.14713L5.64709 12.1471L0.450958 15.1471L5.64709 18.1471L0.450958 21.1471L5.64709 24.1471L0.450958 27.1471L5.64709 30.1471L0.450958 33.1471L5.64709 36.1471L0.450958 39.1471L5.64709 42.1471L0 45.4075V48H111V47.1268L105 43.6627L110.451 40.5156L105 37.3685L110.451 34.2214L105 31.0742L110.451 27.9271L105 24.78L110.451 21.6329L105 18.4857L110.451 15.3387L105 12.1916L110.451 9.04457L105 5.89754L111 2.43344ZM106.451 9.04458L101 5.89754L107.751 2H2.46409L9.64708 6.14708L4.45093 9.14712L9.64709 12.1471L4.45095 15.1471L9.64709 18.1471L4.45095 21.1471L9.64709 24.1471L4.45095 27.1471L9.64709 30.1471L4.45095 33.1471L9.64709 36.1471L4.45095 39.1471L9.6471 42.1471L2.9737 46H105.048L101 43.6627L106.451 40.5156L101 37.3685L106.451 34.2214L101 31.0742L106.451 27.9271L101 24.78L106.451 21.6329L101 18.4857L106.451 15.3387L101 12.1916L106.451 9.04458Z" fill="#273C99"/>
<path d="M25 7H87V41H25V7Z" fill="#273C99"/>
<path d="M59.2625 34V14.2H66.0065C67.2945 14.2 68.4385 14.424 69.4385 14.872C70.4385 15.32 71.2265 15.988 71.8025 16.876C72.3785 17.756 72.6665 18.856 72.6665 20.176C72.6665 21.488 72.3785 22.608 71.8025 23.536C71.2265 24.464 70.4385 25.176 69.4385 25.672C68.4385 26.16 67.2945 26.404 66.0065 26.404H63.1505V34H59.2625ZM63.1505 23.296H64.8065C65.4865 23.296 66.1105 23.196 66.6785 22.996C67.2545 22.796 67.7185 22.476 68.0705 22.036C68.4225 21.596 68.5985 21.016 68.5985 20.296C68.5985 19.568 68.4225 18.988 68.0705 18.556C67.7185 18.116 67.2545 17.8 66.6785 17.608C66.1105 17.408 65.4865 17.308 64.8065 17.308H63.1505V23.296Z" fill="white"/>
<path d="M41.1453 34V14.2H47.8893C49.2413 14.2 50.4133 14.44 51.4053 14.92C52.4053 15.392 53.1773 16.076 53.7213 16.972C54.2733 17.86 54.5493 18.932 54.5493 20.188C54.5493 21.18 54.3733 22.076 54.0213 22.876C53.6693 23.668 53.1653 24.336 52.5093 24.88C51.8533 25.424 51.0573 25.828 50.1213 26.092L56.6013 34H51.6693L45.9573 26.536H45.0333V34H41.1453ZM45.0333 23.296H46.6893C47.4973 23.296 48.1813 23.18 48.7413 22.948C49.3013 22.716 49.7293 22.376 50.0253 21.928C50.3293 21.472 50.4813 20.928 50.4813 20.296C50.4813 19.336 50.1493 18.6 49.4853 18.088C48.8293 17.568 47.8973 17.308 46.6893 17.308H45.0333V23.296Z" fill="white"/>
</svg>
