<svg width="102" height="54" viewBox="0 0 102 54" fill="none" xmlns="http://www.w3.org/2000/svg">
<path fill-rule="evenodd" clip-rule="evenodd" d="M0 31.4611H101.533V43.052C101.533 45.3382 99.6779 47.1916 97.3891 47.1916H90.6462C89.9495 41.9001 86.0903 37.8516 81.4339 37.8516C76.7775 37.8516 72.9183 41.9001 72.2215 47.1916H30.1406C29.4439 41.9001 25.5847 37.8516 20.9283 37.8516C16.2719 37.8516 12.4127 41.9001 11.716 47.1916H4.14422C1.85543 47.1916 0 45.3382 0 43.052V31.4611ZM10.0148 45.1218C11.383 39.9119 15.5637 35.7818 20.9283 35.7818C26.2929 35.7818 30.4736 39.9119 31.8418 45.1218H70.5204C71.8886 39.9119 76.0693 35.7818 81.4339 35.7818C86.7984 35.7818 90.9791 39.9119 92.3473 45.1218H97.3891C98.5335 45.1218 99.4612 44.1951 99.4612 43.052V33.5309H2.07211V43.052C2.07211 44.1951 2.99982 45.1218 4.14422 45.1218H10.0148Z" fill="#273C99"/>
<path fill-rule="evenodd" clip-rule="evenodd" d="M20.7357 50.8858C23.1051 50.8858 25.0258 49.0718 25.0258 46.834C25.0258 44.5963 23.1051 42.7822 20.7357 42.7822C18.3663 42.7822 16.4455 44.5963 16.4455 46.834C16.4455 49.0718 18.3663 50.8858 20.7357 50.8858ZM20.7357 52.9117C24.2898 52.9117 27.1709 50.1907 27.1709 46.834C27.1709 43.4774 24.2898 40.7563 20.7357 40.7563C17.1816 40.7563 14.3005 43.4774 14.3005 46.834C14.3005 50.1907 17.1816 52.9117 20.7357 52.9117Z" fill="#273C99"/>
<path fill-rule="evenodd" clip-rule="evenodd" d="M68.794 9.10714V4.13961C68.794 2.99649 67.8663 2.0698 66.7219 2.0698H4.14422C2.99982 2.0698 2.07211 2.99649 2.07211 4.13961V29.3912H99.3523C99.1445 27.6412 98.3529 26.0048 97.0958 24.7514L83.2256 10.9218L84.6894 9.45693L98.5597 23.2865C100.206 24.9278 101.22 27.0891 101.436 29.3912C101.452 29.5663 101.464 29.7422 101.471 29.9188L101.533 31.461H0V4.13961C0 1.85337 1.85543 0 4.14422 0H66.7219C69.0107 0 70.8661 1.85337 70.8661 4.13961V7.03734H78.834C81.0296 7.03734 83.1355 7.90754 84.6894 9.45693L83.2256 10.9218C82.0601 9.7598 80.4807 9.10714 78.834 9.10714H68.794ZM73.3527 10.9924L75.262 10.8421L75.4248 12.9055V25.6656H89.3597C90.0499 25.6656 90.7076 25.2376 90.7528 24.5496C90.7766 24.1873 90.7288 23.8222 90.507 23.6014C90.036 23.1327 83.1596 16.5486 80.11 13.9253C79.283 13.214 78.2591 12.8243 77.1678 12.8336C76.2373 12.8415 75.4248 12.9055 75.4248 12.9055C75.262 10.8421 75.2619 10.8421 75.262 10.8421L75.2766 10.841L75.3096 10.8385C75.3257 10.8373 75.3457 10.8359 75.3692 10.8342C75.3865 10.833 75.4056 10.8317 75.4266 10.8303C75.5259 10.8236 75.6665 10.8147 75.8372 10.8056C76.177 10.7876 76.6451 10.7682 77.1501 10.7639C78.7632 10.7501 80.2695 11.331 81.4622 12.3569C84.5655 15.0265 91.4816 21.6495 91.9696 22.1353C92.8703 23.0317 92.8512 24.2181 92.8205 24.6852C92.6789 26.8405 90.7152 27.7354 89.3597 27.7354H73.3527V10.9924Z" fill="#273C99"/>
<path fill-rule="evenodd" clip-rule="evenodd" d="M81.8702 51.6008C84.1079 51.6008 85.922 49.7868 85.922 47.549C85.922 45.3113 84.1079 43.4972 81.8702 43.4972C79.6324 43.4972 77.8184 45.3113 77.8184 47.549C77.8184 49.7868 79.6324 51.6008 81.8702 51.6008ZM81.8702 53.6267C85.2268 53.6267 87.9479 50.9056 87.9479 47.549C87.9479 44.1924 85.2268 41.4713 81.8702 41.4713C78.5136 41.4713 75.7925 44.1924 75.7925 47.549C75.7925 50.9056 78.5136 53.6267 81.8702 53.6267Z" fill="#273C99"/>
<path d="M48.1952 24V7.5H52.4352C53.6085 7.5 54.6985 7.71 55.7052 8.13C56.7118 8.55 57.5918 9.13667 58.3452 9.89C59.1052 10.6367 59.6952 11.5133 60.1152 12.52C60.5418 13.52 60.7552 14.6 60.7552 15.76C60.7552 16.92 60.5452 18 60.1252 19C59.7052 20 59.1152 20.8767 58.3552 21.63C57.6018 22.3767 56.7185 22.96 55.7052 23.38C54.6985 23.7933 53.6085 24 52.4352 24H48.1952ZM50.8152 21.65H52.1552C52.9818 21.65 53.7452 21.5033 54.4452 21.21C55.1518 20.9167 55.7652 20.5033 56.2852 19.97C56.8118 19.4367 57.2185 18.8133 57.5052 18.1C57.7985 17.38 57.9452 16.5967 57.9452 15.75C57.9452 14.91 57.7985 14.13 57.5052 13.41C57.2185 12.69 56.8118 12.0667 56.2852 11.54C55.7652 11.0067 55.1518 10.5933 54.4452 10.3C53.7452 10 52.9818 9.85 52.1552 9.85H50.8152V21.65Z" fill="#273C99"/>
<path d="M37.1759 24.32C36.0226 24.32 34.9426 24.1 33.9359 23.66C32.9293 23.22 32.0459 22.61 31.2859 21.83C30.5259 21.0433 29.9293 20.1333 29.4959 19.1C29.0693 18.06 28.8559 16.9466 28.8559 15.76C28.8559 14.5666 29.0693 13.4533 29.4959 12.42C29.9293 11.3866 30.5259 10.48 31.2859 9.69995C32.0459 8.91328 32.9293 8.29995 33.9359 7.85995C34.9426 7.41995 36.0226 7.19995 37.1759 7.19995C38.3293 7.19995 39.4093 7.41995 40.4159 7.85995C41.4226 8.29995 42.3059 8.91328 43.0659 9.69995C43.8259 10.48 44.4193 11.3866 44.8459 12.42C45.2793 13.4533 45.4959 14.5666 45.4959 15.76C45.4959 16.9466 45.2793 18.06 44.8459 19.1C44.4193 20.1333 43.8259 21.0433 43.0659 21.83C42.3059 22.61 41.4226 23.22 40.4159 23.66C39.4093 24.1 38.3293 24.32 37.1759 24.32ZM37.1759 21.8C37.9626 21.8 38.6893 21.65 39.3559 21.35C40.0293 21.0433 40.6126 20.62 41.1059 20.08C41.6059 19.5333 41.9926 18.8933 42.2659 18.16C42.5393 17.4266 42.6759 16.6266 42.6759 15.76C42.6759 14.8933 42.5393 14.0933 42.2659 13.36C41.9926 12.6266 41.6059 11.99 41.1059 11.45C40.6126 10.9033 40.0293 10.48 39.3559 10.18C38.6893 9.87328 37.9626 9.71995 37.1759 9.71995C36.3959 9.71995 35.6693 9.87328 34.9959 10.18C34.3293 10.48 33.7459 10.9033 33.2459 11.45C32.7526 11.99 32.3693 12.6266 32.0959 13.36C31.8226 14.0933 31.6859 14.8933 31.6859 15.76C31.6859 16.6266 31.8226 17.4266 32.0959 18.16C32.3693 18.8933 32.7526 19.5333 33.2459 20.08C33.7459 20.62 34.3293 21.0433 34.9959 21.35C35.6693 21.65 36.3959 21.8 37.1759 21.8Z" fill="#273C99"/>
<path d="M22.76 24.32C21.5133 24.32 20.35 24.1033 19.27 23.67C18.19 23.23 17.24 22.62 16.42 21.84C15.6067 21.06 14.97 20.1533 14.51 19.12C14.05 18.08 13.82 16.96 13.82 15.76C13.82 14.5666 14.05 13.45 14.51 12.41C14.9767 11.37 15.6167 10.46 16.43 9.67995C17.2433 8.89995 18.1867 8.29328 19.26 7.85995C20.34 7.41995 21.5 7.19995 22.74 7.19995C23.76 7.19995 24.7267 7.34662 25.64 7.63995C26.5533 7.93328 27.3433 8.32328 28.01 8.80995L26.86 11.03C26.36 10.63 25.7667 10.32 25.08 10.1C24.3933 9.87995 23.67 9.76995 22.91 9.76995C22.01 9.76995 21.18 9.92328 20.42 10.23C19.66 10.5366 18.9967 10.9633 18.43 11.51C17.87 12.05 17.4367 12.6833 17.13 13.41C16.8233 14.1366 16.67 14.92 16.67 15.76C16.67 16.6 16.8233 17.3833 17.13 18.11C17.4367 18.8366 17.87 19.4733 18.43 20.02C18.9967 20.56 19.66 20.9833 20.42 21.29C21.18 21.5966 22.01 21.75 22.91 21.75C23.67 21.75 24.3933 21.64 25.08 21.42C25.7667 21.2 26.36 20.89 26.86 20.49L28.01 22.71C27.3633 23.1833 26.5833 23.57 25.67 23.87C24.7633 24.17 23.7933 24.32 22.76 24.32Z" fill="#273C99"/>
</svg>
