<svg width="87" height="61" viewBox="0 0 87 61" fill="none" xmlns="http://www.w3.org/2000/svg">
<path d="M27 4C27 2.89543 27.8954 2 29 2H58C59.1046 2 60 2.89543 60 4V57C60 58.1046 59.1046 59 58 59H29C27.8954 59 27 58.1046 27 57V4Z" fill="#273C99"/>
<path fill-rule="evenodd" clip-rule="evenodd" d="M29 0H58C60.2091 0 62 1.79086 62 4V57C62 59.2091 60.2091 61 58 61H29C26.7909 61 25 59.2091 25 57V4C25 1.79086 26.7909 0 29 0ZM29 2C27.8954 2 27 2.89543 27 4V57C27 58.1046 27.8954 59 29 59H58C59.1046 59 60 58.1046 60 57V4C60 2.89543 59.1046 2 58 2H29Z" fill="#273C99"/>
<path d="M27 4C27 2.89543 27.8954 2 29 2H58C59.1046 2 60 2.89543 60 4V57C60 58.1046 59.1046 59 58 59H29C27.8954 59 27 58.1046 27 57V4Z" fill="white"/>
<path d="M33 5.5C33 6.88071 31.8807 8 30.5 8C29.1193 8 28 6.88071 28 5.5C28 4.11929 29.1193 3 30.5 3C31.8807 3 33 4.11929 33 5.5Z" fill="#273C99"/>
<path fill-rule="evenodd" clip-rule="evenodd" d="M10 14C3.9895 17.8123 0 24.5248 0 32.1692C0 39.8136 3.9895 46.5261 10 50.3384V47.9189C5.15008 44.3716 2 38.6382 2 32.1692C2 25.7001 5.15008 19.9668 10 16.4195V14Z" fill="#273C99"/>
<path fill-rule="evenodd" clip-rule="evenodd" d="M13 20.6692C9.3937 22.9565 7 26.9841 7 31.5707C7 36.1573 9.3937 40.1848 13 42.4722V40.0091C10.5583 38.0102 9 34.9724 9 31.5707C9 28.1689 10.5583 25.1312 13 23.1323V20.6692Z" fill="#273C99"/>
<path fill-rule="evenodd" clip-rule="evenodd" d="M77 14C83.0105 17.8123 87 24.5248 87 32.1692C87 39.8136 83.0105 46.5261 77 50.3384V47.9189C81.8499 44.3716 85 38.6382 85 32.1692C85 25.7001 81.8499 19.9668 77 16.4195V14Z" fill="#273C99"/>
<path fill-rule="evenodd" clip-rule="evenodd" d="M74 20.6692C77.6063 22.9565 80 26.9841 80 31.5707C80 36.1573 77.6063 40.1848 74 42.4722V40.0091C76.4417 38.0102 78 34.9724 78 31.5707C78 28.1689 76.4417 25.1312 74 23.1323V20.6692Z" fill="#273C99"/>
</svg>
