<svg width="20" height="20" viewBox="0 0 20 20" fill="none" xmlns="http://www.w3.org/2000/svg">
<path d="M18.6969 9.59847C18.6969 14.6234 14.6234 18.6969 9.59847 18.6969C4.57352 18.6969 0.5 14.6234 0.5 9.59847C0.5 4.57353 4.57353 0.5 9.59847 0.5C14.6234 0.5 18.6969 4.57352 18.6969 9.59847Z" stroke="#FFBB0E"/>
<path d="M9.4025 16.24C9.1775 16.24 8.97 16.1825 8.78 16.0675C8.595 15.9575 8.4475 15.81 8.3375 15.625C8.2275 15.435 8.1725 15.2275 8.1725 15.0025C8.1725 14.7725 8.2275 14.565 8.3375 14.38C8.4475 14.19 8.595 14.04 8.78 13.93C8.97 13.82 9.1775 13.765 9.4025 13.765C9.6325 13.765 9.84 13.82 10.025 13.93C10.215 14.04 10.365 14.19 10.475 14.38C10.585 14.565 10.64 14.7725 10.64 15.0025C10.64 15.2275 10.585 15.435 10.475 15.625C10.365 15.81 10.215 15.9575 10.025 16.0675C9.84 16.1825 9.6325 16.24 9.4025 16.24ZM8.5475 12.4075V9.13C8.6525 9.15 8.7725 9.17 8.9075 9.19C9.0425 9.205 9.185 9.2125 9.335 9.2125C9.83 9.2125 10.26 9.1325 10.625 8.9725C10.99 8.8075 11.2725 8.5675 11.4725 8.2525C11.6775 7.9375 11.78 7.5575 11.78 7.1125C11.78 6.6875 11.6875 6.3225 11.5025 6.0175C11.3175 5.7125 11.055 5.4775 10.715 5.3125C10.375 5.1475 9.975 5.065 9.515 5.065C8.865 5.065 8.335 5.24 7.925 5.59C7.515 5.935 7.2775 6.4175 7.2125 7.0375L5.6525 6.73C5.7375 6.03 5.96 5.4325 6.32 4.9375C6.685 4.4375 7.145 4.0575 7.7 3.7975C8.26 3.5325 8.8725 3.4 9.5375 3.4C10.3175 3.4 11.0075 3.5675 11.6075 3.9025C12.2125 4.2375 12.685 4.6875 13.025 5.2525C13.37 5.8125 13.5425 6.435 13.5425 7.12C13.5425 7.745 13.4 8.3225 13.115 8.8525C12.83 9.3775 12.44 9.81 11.945 10.15C11.455 10.49 10.9 10.6975 10.28 10.7725V12.4075H8.5475Z" fill="#FFBB0E"/>
</svg>
