<svg width="34" height="34" viewBox="0 0 34 34" fill="none" xmlns="http://www.w3.org/2000/svg">
<path d="M14.7415 0.0421187C6.61263 0.0421187 0 6.65475 0 14.7837C0 22.9126 6.61263 29.5252 14.7415 29.5252C17.2265 29.5252 19.6694 28.9355 21.7332 27.7983C21.8986 27.9973 22.0818 28.1806 22.2808 28.3459L26.4926 32.5577C26.8816 32.9954 27.3558 33.3489 27.8863 33.5966C28.4168 33.8443 28.9923 33.9809 29.5775 33.9981C30.1627 34.0154 30.7452 33.9128 31.2894 33.6967C31.8335 33.4807 32.3277 33.1557 32.7417 32.7417C33.1557 32.3277 33.4807 31.8335 33.6967 31.2894C33.9128 30.7452 34.0154 30.1627 33.9981 29.5775C33.9809 28.9923 33.8442 28.4168 33.5966 27.8863C33.3489 27.3558 32.9954 26.8816 32.5577 26.4927L28.3459 22.2808C28.1407 22.0755 27.9149 21.8921 27.672 21.7332C28.8092 19.6694 29.5252 17.2687 29.5252 14.7415C29.5252 6.61263 22.9126 0 14.7837 0L14.7415 0.0421187ZM14.7415 4.25399C20.596 4.25399 25.2712 8.92916 25.2712 14.7837C25.2712 17.5635 24.2604 20.1327 22.4914 22.0281C22.4493 22.0702 22.4071 22.1123 22.365 22.1544C22.1661 22.3197 21.9828 22.503 21.8175 22.702C19.9643 24.3867 17.4371 25.3554 14.6994 25.3554C8.84492 25.3554 4.16975 20.6803 4.16975 14.8258C4.16975 8.97128 8.84492 4.29611 14.6994 4.29611L14.7415 4.25399Z" fill="#273C99"/>
</svg>
