<svg width="37" height="37" viewBox="0 0 37 37" fill="none" xmlns="http://www.w3.org/2000/svg">
<path d="M1.93325 0.0122611C1.33196 0.140468 0.793524 0.581737 0.436379 1.23899C0.0792344 1.89625 -0.0673598 2.71566 0.0288458 3.51695C0.125051 4.31825 0.456176 5.03579 0.949376 5.51174C1.44258 5.98768 2.05745 6.18304 2.65874 6.05483H9.46018L9.86826 7.56547L11.7273 15.1187L13.5864 22.6719C13.7678 23.4574 14.5386 24.1825 15.128 24.1825H30.9981C31.6329 24.1825 32.3584 23.4574 32.5397 22.6719L36.2125 7.56547C36.3939 6.77994 36.1218 6.05483 35.487 6.05483H15.3548L13.6317 1.70418C13.4482 1.20482 13.1648 0.782632 12.8128 0.484111C12.4608 0.185589 12.0538 0.022313 11.6366 0.0122611L2.56805 0.0122611C2.4323 -0.00408703 2.29572 -0.00408703 2.15996 0.0122611C2.06936 0.00500346 1.97851 0.00500346 1.88791 0.0122611L1.93325 0.0122611ZM16.2616 30.2251C14.992 30.2251 13.9945 31.5545 13.9945 33.2464C13.9945 34.9383 14.992 36.2677 16.2616 36.2677C17.5312 36.2677 18.5288 34.9383 18.5288 33.2464C18.5288 31.5545 17.5312 30.2251 16.2616 30.2251ZM29.8645 30.2251C28.5949 30.2251 27.5974 31.5545 27.5974 33.2464C27.5974 34.9383 28.5949 36.2677 29.8645 36.2677C31.1341 36.2677 32.1317 34.9383 32.1317 33.2464C32.1317 31.5545 31.1341 30.2251 29.8645 30.2251Z" fill="white"/>
</svg>
