<svg width="20" height="20" viewBox="0 0 20 20" fill="none" xmlns="http://www.w3.org/2000/svg">
<path d="M10 0C4.475 0 0 4.475 0 10C0 15.525 4.475 20 10 20C15.525 20 20 15.525 20 10C20 4.475 15.525 0 10 0ZM10 2.5C10.825 2.5 11.6 2.725 12.35 2.975C11.825 3.475 11.225 3.925 11.325 4.375C11.425 4.825 13.05 4.7 13.05 5.625C13.05 6.3 12 6.5 12.725 7.275C13.6 8.15 11.125 9.725 11.075 10.875C11 12.95 13.175 13.3 14.9 13.3C15.95 13.3 16.225 13.8 16.15 14.4C14.8 16.325 12.5 17.525 9.975 17.525C9.025 17.525 8.15 17.3 7.325 16.975C7.875 15.875 6.625 13.7 5.45 13C4.875 12.425 3.65 12.65 2.95 12.375C2.725 11.7 2.5 11.025 2.475 10.275C2.55 10.15 2.675 10.05 2.875 10.05C3.35 10.05 4 11 4.35 10.9C4.8 10.8 2.5 7.625 3.575 7C4.075 6.7 5.075 7.975 4.75 6.6C4.45 5.325 5.65 5.9 6.4 5.575C7.05 5.3 7.525 4.55 6.725 4.1C6.575 4.025 6.4 3.85 6.175 3.625C7.3 2.95 8.6 2.525 10 2.525V2.5ZM15.775 5.225C16.225 5.775 16.575 6.375 16.875 7.025V7.1C16.775 7.275 16.6 7.375 16.325 7.65C15.625 8.35 15.525 7.125 15.225 6.875C14.9 6.575 13.725 6.925 13.575 6.55C13.4 6.1 14.825 5.5 15.775 5.225Z" fill="#FFBB0E"/>
</svg>
