<?xml version="1.0"?>
<svg width="35" height="43" xmlns="http://www.w3.org/2000/svg" xmlns:svg="http://www.w3.org/2000/svg">
 <g class="layer">
  <title>Layer 1</title>
  <g id="svg_5">
   <circle cx="16.5" cy="25.4" fill="#000000" id="svg_4" r="32.04" stroke="#000000"/>
   <path clip-rule="evenodd" d="m23.27,16.29c0.15,-0.92 0.24,-1.89 0.24,-2.9c0,-3.13 -0.79,-5.88 -1.98,-7.8c-1.2,-1.94 -2.65,-2.82 -3.98,-2.82c-1.32,0 -2.77,0.88 -3.97,2.82c-1.19,1.92 -1.98,4.67 -1.98,7.8c0,1.01 0.08,1.98 0.24,2.9l-1.63,0c-0.14,-0.93 -0.22,-1.9 -0.22,-2.9c0,-6.75 3.39,-12.23 7.56,-12.23c4.18,0 7.57,5.48 7.57,12.23c0,1 -0.08,1.97 -0.22,2.9l-1.63,0z" fill="#FFBB0E" fill-rule="evenodd" id="svg_1"/>
   <path d="m6.69,16.29l20.55,0l7.06,25.38l-34.03,0l6.42,-25.38z" fill="white" id="svg_2"/>
   <path d="m22.66,39.15c-1.97,0.9 -3.92,1.29 -5.87,1.18c-1.94,-0.13 -3.69,-0.71 -5.27,-1.74c-1.57,-1.02 -2.78,-2.44 -3.61,-4.26c-0.62,-1.34 -0.94,-2.7 -0.96,-4.1c-0.01,-1.4 0.25,-2.74 0.77,-4.04c0.52,-1.3 1.28,-2.47 2.28,-3.51c0.99,-1.06 2.2,-1.91 3.62,-2.56c1.9,-0.87 3.74,-1.24 5.52,-1.11c1.79,0.12 3.4,0.69 4.82,1.71c1.45,1.01 2.59,2.44 3.43,4.28c0.07,0.15 0.13,0.29 0.17,0.41c0.05,0.11 0.13,0.32 0.23,0.64l-13.94,6.41c0.42,0.91 0.99,1.61 1.72,2.1c0.73,0.49 1.57,0.75 2.51,0.79c0.93,0.03 1.9,-0.19 2.9,-0.65c0.95,-0.44 1.7,-1 2.26,-1.7c0.57,-0.7 1,-1.6 1.31,-2.71l4.83,0.15c-0.19,1.84 -0.88,3.54 -2.06,5.07c-1.19,1.54 -2.74,2.75 -4.66,3.64zm-9.99,-9.77l8.45,-3.89c-0.43,-0.63 -0.96,-1.12 -1.58,-1.44c-0.61,-0.33 -1.28,-0.5 -1.99,-0.49c-0.72,0 -1.45,0.17 -2.2,0.51c-0.79,0.37 -1.43,0.82 -1.91,1.37c-0.48,0.55 -0.79,1.16 -0.92,1.83c-0.14,0.67 -0.09,1.38 0.15,2.11z" fill="#FFBB0E" id="svg_3"/>
  </g>
 </g>
</svg>