<svg width="36" height="37" viewBox="0 0 36 37" fill="none" xmlns="http://www.w3.org/2000/svg">
<path d="M11.5 12.9079V12.1869H21.7866L21.8498 12.9079H11.5Z" fill="black" stroke="white" stroke-width="23"/>
<path fill-rule="evenodd" clip-rule="evenodd" d="M24.8671 8.05447C24.8671 8.33225 24.6419 8.55743 24.3641 8.55743H5.75461C5.47683 8.55743 5.25165 8.33225 5.25165 8.05447C5.25165 7.7767 5.47683 7.55151 5.75461 7.55151H24.3641C24.6419 7.55151 24.8671 7.7767 24.8671 8.05447Z" fill="#273C99"/>
<path fill-rule="evenodd" clip-rule="evenodd" d="M24.8671 13.084C24.8671 13.3618 24.6419 13.587 24.3641 13.587H5.75461C5.47683 13.587 5.25165 13.3618 5.25165 13.084C5.25165 12.8062 5.47683 12.5811 5.75461 12.5811H24.3641C24.6419 12.5811 24.8671 12.8062 24.8671 13.084Z" fill="#273C99"/>
<path fill-rule="evenodd" clip-rule="evenodd" d="M24.8671 18.1136C24.8671 18.3913 24.6419 18.6165 24.3641 18.6165H5.75461C5.47683 18.6165 5.25165 18.3913 5.25165 18.1136C5.25165 17.8358 5.47683 17.6106 5.75461 17.6106H24.3641C24.6419 17.6106 24.8671 17.8358 24.8671 18.1136Z" fill="#273C99"/>
</svg>
