<svg width="65" height="65" viewBox="0 0 65 65" fill="none" xmlns="http://www.w3.org/2000/svg">
<path d="M0 0H64.0645V64.0645H0V0Z" fill="white" fill-opacity="0.01"/>
<path d="M32.0322 26.6935C37.1921 26.6935 41.3749 22.5107 41.3749 17.3508C41.3749 12.1909 37.1921 8.00806 32.0322 8.00806C26.8723 8.00806 22.6895 12.1909 22.6895 17.3508C22.6895 22.5107 26.8723 26.6935 32.0322 26.6935Z" fill="white"/>
<path d="M8.00806 54.4548V56.0565H56.0564V54.4548C56.0564 48.475 56.0564 45.485 54.8927 43.201C53.869 41.1919 52.2355 39.5584 50.2264 38.5347C47.9424 37.371 44.9525 37.371 38.9726 37.371H25.0919C19.112 37.371 16.1221 37.371 13.8381 38.5347C11.8289 39.5584 10.1955 41.1919 9.17183 43.201C8.00806 45.485 8.00806 48.475 8.00806 54.4548Z" fill="white"/>
</svg>
