<svg width="79" height="57" viewBox="0 0 79 57" fill="none" xmlns="http://www.w3.org/2000/svg">
<g id="KERANJANG">
<path id="Union (Stroke)" fill-rule="evenodd" clip-rule="evenodd" d="M0 26C0 23.5147 2.01472 21.5 4.5 21.5H74C76.4853 21.5 78.5 23.5147 78.5 26C78.5 28.4853 76.4853 30.5 74 30.5H72.8024L63.1148 53.9118C62.3413 55.781 60.5177 57 58.4947 57H20.5053C18.4823 57 16.6587 55.781 15.8852 53.9118L6.19761 30.5H4.5C2.01472 30.5 0 28.4853 0 26ZM7.53448 28.5H4.5C3.11929 28.5 2 27.3807 2 26C2 24.6193 3.11929 23.5 4.5 23.5H74C75.3807 23.5 76.5 24.6193 76.5 26C76.5 27.3807 75.3807 28.5 74 28.5H71.4655L61.2667 53.1471C60.8026 54.2686 59.7085 55 58.4947 55H20.5053C19.2915 55 18.1974 54.2686 17.7333 53.1471L7.53448 28.5Z" fill="#273C99"/>
<path id="Union (Stroke)_2" fill-rule="evenodd" clip-rule="evenodd" d="M16.2711 23L22.6514 2.79547L24.5586 3.39774L19 21H59L53.4414 3.39774C53.1786 2.56568 52.4068 2 51.5342 2H26.4658C25.5932 2 24.8214 2.56568 24.5586 3.39774L22.6514 2.79547C23.1769 1.13136 24.7206 0 26.4658 0H51.5342C53.2793 0 54.823 1.13136 55.3485 2.79547L61.7289 23H16.2711Z" fill="#273C99"/>
<g id="Group 14">
<path id="Vector 6 (Stroke)" fill-rule="evenodd" clip-rule="evenodd" d="M25 29C25.5523 29 26 29.4477 26 30V48.5C26 49.0523 25.5523 49.5 25 49.5C24.4477 49.5 24 49.0523 24 48.5V30C24 29.4477 24.4477 29 25 29Z" fill="#273C99"/>
<path id="Vector 7 (Stroke)" fill-rule="evenodd" clip-rule="evenodd" d="M32 29C32.5523 29 33 29.4477 33 30V48.5C33 49.0523 32.5523 49.5 32 49.5C31.4477 49.5 31 49.0523 31 48.5V30C31 29.4477 31.4477 29 32 29Z" fill="#273C99"/>
<path id="Vector 8 (Stroke)" fill-rule="evenodd" clip-rule="evenodd" d="M39 29C39.5523 29 40 29.4477 40 30V48.5C40 49.0523 39.5523 49.5 39 49.5C38.4477 49.5 38 49.0523 38 48.5V30C38 29.4477 38.4477 29 39 29Z" fill="#273C99"/>
<path id="Vector 9 (Stroke)" fill-rule="evenodd" clip-rule="evenodd" d="M46 29C46.5523 29 47 29.4477 47 30V48.5C47 49.0523 46.5523 49.5 46 49.5C45.4477 49.5 45 49.0523 45 48.5V30C45 29.4477 45.4477 29 46 29Z" fill="#273C99"/>
<path id="Vector 10 (Stroke)" fill-rule="evenodd" clip-rule="evenodd" d="M53 29C53.5523 29 54 29.4477 54 30V48.5C54 49.0523 53.5523 49.5 53 49.5C52.4477 49.5 52 49.0523 52 48.5V30C52 29.4477 52.4477 29 53 29Z" fill="#273C99"/>
</g>
</g>
</svg>
