<svg width="291" height="59" viewBox="0 0 291 59" fill="none" xmlns="http://www.w3.org/2000/svg">
<path d="M275.472 58.8468C271.894 58.8468 268.887 58.19 266.45 56.8766C264.013 55.5804 262.242 53.662 261.136 51.1215L267.617 47.9588C268.343 49.1859 269.414 50.1624 270.831 50.8882C272.249 51.6141 273.787 51.977 275.446 51.977C276.949 51.977 278.271 51.6746 279.412 51.0697C280.553 50.4821 281.443 49.6439 282.082 48.5551C282.722 47.4836 283.041 46.2392 283.041 44.8221V41.0891C281.866 42.4544 280.475 43.5173 278.868 44.2777C277.26 45.0381 275.532 45.4183 273.683 45.4183C271.281 45.4183 269.086 44.8221 267.098 43.6296C265.128 42.4198 263.555 40.7521 262.38 38.6263C261.205 36.5006 260.617 34.0638 260.617 31.3159C260.617 28.6198 261.188 26.2175 262.328 24.1091C263.486 21.9833 265.059 20.3069 267.047 19.0799C269.051 17.8355 271.333 17.2134 273.89 17.2134C275.757 17.2134 277.485 17.5763 279.075 18.3022C280.665 19.0108 281.987 20.0045 283.041 21.2834V18.0429H291V45.3146C291 47.9243 290.43 50.2488 289.289 52.2881C288.166 54.3274 286.455 55.9261 284.156 57.084C281.858 58.2592 278.963 58.8468 275.472 58.8468ZM276.068 38.6522C277.468 38.6522 278.704 38.3412 279.775 37.719C280.864 37.0795 281.711 36.2154 282.316 35.1266C282.92 34.0206 283.223 32.7676 283.223 31.3677C283.223 29.9333 282.912 28.663 282.29 27.5569C281.685 26.4508 280.847 25.5781 279.775 24.9386C278.704 24.2992 277.485 23.9795 276.12 23.9795C274.755 23.9795 273.536 24.2992 272.465 24.9386C271.393 25.5781 270.546 26.4595 269.924 27.5828C269.302 28.6889 268.991 29.9505 268.991 31.3677C268.991 32.7676 269.293 34.0206 269.898 35.1266C270.503 36.2154 271.341 37.0795 272.413 37.719C273.484 38.3412 274.703 38.6522 276.068 38.6522Z" fill="white"/>
<path d="M225.086 44.5888V18.0429H233.044V20.9982C234.064 19.8576 235.334 18.9416 236.855 18.2503C238.393 17.559 240.087 17.2134 241.936 17.2134C243.976 17.2134 245.764 17.6627 247.302 18.5614C248.858 19.4428 250.076 20.6785 250.958 22.2685C251.839 23.8412 252.28 25.6818 252.28 27.7902V44.5888H244.321V29.4753C244.321 27.5742 243.82 26.0966 242.818 25.0423C241.833 23.9708 240.476 23.4351 238.748 23.4351C237.572 23.4351 236.553 23.677 235.689 24.1609C234.842 24.6275 234.185 25.2756 233.718 26.1052C233.269 26.9175 233.044 27.8421 233.044 28.879V44.5888H225.086Z" fill="white"/>
<path d="M196.93 45.4183C194.493 45.4183 192.272 44.8134 190.267 43.6037C188.28 42.3766 186.698 40.7002 185.523 38.5745C184.365 36.4315 183.786 33.9946 183.786 31.264C183.786 28.6025 184.348 26.2175 185.471 24.1091C186.595 21.9833 188.141 20.3069 190.112 19.0799C192.099 17.8355 194.372 17.2134 196.93 17.2134C198.813 17.2134 200.567 17.5763 202.192 18.3022C203.834 19.0108 205.173 20.0045 206.21 21.2834V18.0429H214.169V44.5888H206.21V41.0891C205 42.4889 203.609 43.5605 202.036 44.3036C200.464 45.0468 198.761 45.4183 196.93 45.4183ZM199.289 38.6522C200.671 38.6522 201.898 38.3412 202.97 37.719C204.041 37.0795 204.879 36.2068 205.484 35.1007C206.089 33.9946 206.392 32.733 206.392 31.3159C206.392 29.8814 206.081 28.6198 205.458 27.531C204.854 26.4249 204.015 25.5608 202.944 24.9386C201.89 24.2992 200.671 23.9795 199.289 23.9795C197.923 23.9795 196.705 24.2992 195.633 24.9386C194.562 25.5608 193.715 26.4249 193.093 27.531C192.471 28.6371 192.16 29.8987 192.16 31.3159C192.16 32.733 192.462 33.9946 193.067 35.1007C193.689 36.2068 194.536 37.0795 195.607 37.719C196.679 38.3412 197.906 38.6522 199.289 38.6522Z" fill="white"/>
<path d="M159.415 58.8468C155.837 58.8468 152.83 58.19 150.393 56.8766C147.956 55.5804 146.185 53.662 145.079 51.1215L151.56 47.9588C152.286 49.1859 153.357 50.1624 154.774 50.8882C156.192 51.6141 157.73 51.977 159.389 51.977C160.892 51.977 162.214 51.6746 163.355 51.0697C164.496 50.4821 165.386 49.6439 166.025 48.5551C166.665 47.4836 166.984 46.2392 166.984 44.8221V41.0891C165.809 42.4544 164.418 43.5173 162.811 44.2777C161.203 45.0381 159.475 45.4183 157.626 45.4183C155.224 45.4183 153.029 44.8221 151.041 43.6296C149.071 42.4198 147.498 40.7521 146.323 38.6263C145.148 36.5006 144.56 34.0638 144.56 31.3159C144.56 28.6198 145.131 26.2175 146.271 24.1091C147.429 21.9833 149.002 20.3069 150.99 19.0799C152.994 17.8355 155.276 17.2134 157.833 17.2134C159.7 17.2134 161.428 17.5763 163.018 18.3022C164.608 19.0108 165.93 20.0045 166.984 21.2834V18.0429H174.943V45.3146C174.943 47.9243 174.373 50.2488 173.232 52.2881C172.109 54.3274 170.398 55.9261 168.099 57.084C165.801 58.2592 162.906 58.8468 159.415 58.8468ZM160.011 38.6522C161.411 38.6522 162.647 38.3412 163.718 37.719C164.807 37.0795 165.654 36.2154 166.259 35.1266C166.863 34.0206 167.166 32.7676 167.166 31.3677C167.166 29.9333 166.855 28.663 166.233 27.5569C165.628 26.4508 164.79 25.5781 163.718 24.9386C162.647 24.2992 161.428 23.9795 160.063 23.9795C158.698 23.9795 157.479 24.2992 156.408 24.9386C155.336 25.5781 154.489 26.4595 153.867 27.5828C153.245 28.6889 152.934 29.9505 152.934 31.3677C152.934 32.7676 153.236 34.0206 153.841 35.1266C154.446 36.2154 155.284 37.0795 156.356 37.719C157.427 38.3412 158.646 38.6522 160.011 38.6522Z" fill="white"/>
<path d="M118.478 45.4183C116.041 45.4183 113.82 44.8134 111.816 43.6037C109.828 42.3766 108.247 40.7002 107.072 38.5745C105.914 36.4315 105.335 33.9946 105.335 31.264C105.335 28.6025 105.896 26.2175 107.02 24.1091C108.143 21.9833 109.69 20.3069 111.66 19.0799C113.648 17.8355 115.92 17.2134 118.478 17.2134C120.362 17.2134 122.116 17.5763 123.741 18.3022C125.382 19.0108 126.722 20.0045 127.759 21.2834V18.0429H135.717V44.5888H127.759V41.0891C126.549 42.4889 125.158 43.5605 123.585 44.3036C122.012 45.0468 120.31 45.4183 118.478 45.4183ZM120.837 38.6522C122.22 38.6522 123.447 38.3412 124.518 37.719C125.59 37.0795 126.428 36.2068 127.033 35.1007C127.638 33.9946 127.94 32.733 127.94 31.3159C127.94 29.8814 127.629 28.6198 127.007 27.531C126.402 26.4249 125.564 25.5608 124.492 24.9386C123.438 24.2992 122.22 23.9795 120.837 23.9795C119.472 23.9795 118.253 24.2992 117.182 24.9386C116.11 25.5608 115.263 26.4249 114.641 27.531C114.019 28.6371 113.708 29.8987 113.708 31.3159C113.708 32.733 114.011 33.9946 114.615 35.1007C115.238 36.2068 116.084 37.0795 117.156 37.719C118.227 38.3412 119.454 38.6522 120.837 38.6522Z" fill="white"/>
<path d="M79.1745 45.4183C76.7723 45.4183 74.5774 44.822 72.5899 43.6295C70.6197 42.4198 69.047 40.752 67.8718 38.6263C66.6966 36.5005 66.109 34.0637 66.109 31.3158C66.109 28.6197 66.6793 26.2175 67.82 24.109C68.9606 21.9833 70.5247 20.3069 72.5121 19.0798C74.5169 17.8355 76.8068 17.2133 79.3819 17.2133C81.2484 17.2133 82.9767 17.5762 84.5667 18.3021C86.1566 19.0107 87.4787 20.0044 88.533 21.2833V0H96.4915V44.5887H88.533V41.089C87.3578 42.4543 85.9665 43.5172 84.3593 44.2776C82.752 45.038 81.0237 45.4183 79.1745 45.4183ZM81.5595 38.6522C82.9594 38.6522 84.1951 38.3411 85.2666 37.7189C86.3381 37.0795 87.1763 36.2067 87.7812 35.1006C88.4034 33.9946 88.7144 32.7416 88.7144 31.3417C88.7144 29.9245 88.4034 28.6629 87.7812 27.5569C87.1763 26.4508 86.3381 25.578 85.2666 24.9386C84.1951 24.2991 82.968 23.9794 81.5854 23.9794C80.2201 23.9794 79.0017 24.2991 77.9302 24.9386C76.876 25.578 76.0378 26.4594 75.4156 27.5828C74.7934 28.6889 74.4824 29.9505 74.4824 31.3676C74.4824 32.7675 74.7848 34.0205 75.3897 35.1266C75.9946 36.2154 76.8328 37.0795 77.9043 37.7189C78.9758 38.3411 80.1942 38.6522 81.5595 38.6522Z" fill="white"/>
<path d="M0 44.5886V1.81458H14.5691C17.3516 1.81458 19.823 2.29848 21.9833 3.2663C24.1436 4.23412 25.8459 5.6772 27.0902 7.59555C28.3346 9.49662 28.9567 11.873 28.9567 14.7246C28.9567 17.5589 28.3346 19.9784 27.0902 21.9832C25.8459 23.9879 24.1436 25.5261 21.9833 26.5976C19.823 27.6518 17.3516 28.1789 14.5691 28.1789H8.39927V44.5886H0ZM8.39927 21.4647H11.9767C13.4457 21.4647 14.7938 21.2487 16.0208 20.8166C17.2652 20.3846 18.2675 19.6933 19.028 18.7427C19.7884 17.7922 20.1686 16.5392 20.1686 14.9838C20.1686 13.4111 19.7884 12.1581 19.028 11.2249C18.2675 10.2743 17.2652 9.59168 16.0208 9.1769C14.7938 8.74483 13.4457 8.5288 11.9767 8.5288H8.39927V21.4647Z" fill="white"/>
<path fill-rule="evenodd" clip-rule="evenodd" d="M52.2739 20.2852C52.4249 19.3692 52.5069 18.3988 52.5069 17.3895C52.5069 14.2634 51.7201 11.5101 50.5328 9.59026C49.3302 7.64552 47.8794 6.77182 46.5546 6.77182C45.2298 6.77182 43.779 7.64552 42.5763 9.59026C41.3891 11.5101 40.6023 14.2634 40.6023 17.3895C40.6023 18.3988 40.6843 19.3692 40.8353 20.2852H39.2068C39.0674 19.3569 38.9935 18.3872 38.9935 17.3895C38.9935 10.637 42.3787 5.16309 46.5546 5.16309C50.7304 5.16309 54.1157 10.637 54.1157 17.3895C54.1157 18.3872 54.0418 19.3569 53.9023 20.2852H52.2739Z" fill="#FFBB0E"/>
<path d="M35.6919 20.2853H56.2352L63.2969 45.6689H29.2721L35.6919 20.2853Z" fill="white"/>
<path d="M51.6607 43.1452C49.6946 44.0481 47.7386 44.4422 45.7927 44.3275C43.8533 44.1956 42.0963 43.6177 40.5218 42.5939C38.9473 41.5702 37.7426 40.1493 36.9078 38.3314C36.2937 36.9943 35.9748 35.6283 35.9508 34.2333C35.9387 32.8328 36.1953 31.4865 36.7206 30.1943C37.2405 28.8904 38 27.7179 38.9991 26.6767C39.9928 25.6239 41.2004 24.7711 42.6217 24.1184C44.5167 23.2481 46.3554 22.8795 48.1376 23.0126C49.9262 23.1285 51.5351 23.6962 52.9642 24.7158C54.4052 25.7299 55.5485 27.1576 56.3942 28.999C56.4642 29.1515 56.5202 29.2891 56.5622 29.4118C56.6107 29.5173 56.6872 29.7307 56.7917 30.052L42.8451 36.4568C43.2652 37.3717 43.8388 38.074 44.5657 38.5639C45.3045 39.0483 46.1418 39.31 47.0776 39.349C48.008 39.3761 48.9765 39.1586 49.9833 38.6962C50.9308 38.2611 51.6824 37.6958 52.2379 37.0004C52.8053 36.2996 53.2434 35.3954 53.5522 34.2878L58.3754 34.4375C58.1905 36.2834 57.5049 37.9759 56.3185 39.5149C55.1321 41.0539 53.5795 42.264 51.6607 43.1452ZM41.6671 33.3763L50.1238 29.4926C49.6876 28.855 49.1583 28.3738 48.5358 28.049C47.9252 27.7187 47.2618 27.5547 46.5457 27.5569C45.8296 27.5591 45.0985 27.7315 44.3523 28.0742C43.5587 28.4387 42.9219 28.8945 42.4417 29.4416C41.9615 29.9888 41.6536 30.5988 41.5181 31.2718C41.3825 31.9447 41.4322 32.6462 41.6671 33.3763Z" fill="#FFBB0E"/>
</svg>
