<svg width="53" height="60" viewBox="0 0 53 60" fill="none" xmlns="http://www.w3.org/2000/svg">
<g clip-path="url(#clip0_908_15)">
<path d="M52.0254 14.9354L26.0127 0.00110722L0 14.9354V28.3418L6.01866 24.8689V18.3911L26.0127 6.91247L46.0067 18.3911V20.9625L52.0254 17.4889V14.9354Z" fill="#23155B"/>
<path d="M46.0068 41.3471L26.0127 52.8257L6.0187 41.3471V35.6329L14.7957 30.5678L22.0771 34.7707L28.6856 30.9564L21.4034 26.7542L14.795 22.9393L8.18655 26.7542L6.0209 28.0042L0.00219727 31.4778V44.8022L26.0149 59.7364L52.0276 44.8022V31.3957L46.0089 34.8693L46.0068 41.3471Z" fill="#23155B"/>
<path d="M46.0066 24.1029L31.4071 32.5314L24.7987 36.3457L31.4071 40.1607L38.0155 36.3457L46.0045 31.735L52.0232 28.2614V20.63L46.0066 24.1029Z" fill="#8053FF"/>
</g>
<defs>
<clipPath id="clip0_908_15">
<rect width="52.437" height="60" fill="white"/>
</clipPath>
</defs>
</svg>
