<svg width="118" height="48" viewBox="0 0 118 48" fill="none" xmlns="http://www.w3.org/2000/svg">
<g id="PROMO">
<path id="Subtract" fill-rule="evenodd" clip-rule="evenodd" d="M118 0H0V48H118V36C110.955 36 105.243 30.6274 105.243 24C105.243 17.3726 110.955 12 118 12V0Z" fill="white"/>
<path id="Subtract (Stroke)" fill-rule="evenodd" clip-rule="evenodd" d="M116 2H2V46H116V37.8715C108.881 36.9505 103.243 31.1842 103.243 24C103.243 16.8158 108.881 11.0495 116 10.1285V2ZM118 12C110.955 12 105.243 17.3726 105.243 24C105.243 30.6274 110.955 36 118 36V48H0V0H118V12Z" fill="#273C99"/>
<path id="Vector 4 (Stroke)" fill-rule="evenodd" clip-rule="evenodd" d="M87 2V0H89V2H87ZM87 10V6H89V10H87ZM87 18V14H89V18H87ZM87 26V22H89V26H87ZM87 34V30H89V34H87ZM87 42V38H89V42H87ZM87 48V46H89V48H87Z" fill="#273C99"/>
<path id="%" d="M31.2195 22.16C29.5262 22.16 28.0062 21.8267 26.6595 21.16C25.3129 20.4934 24.2395 19.5667 23.4395 18.38C22.6529 17.1934 22.2595 15.8267 22.2595 14.28C22.2595 12.7334 22.6529 11.3667 23.4395 10.18C24.2395 8.99336 25.3129 8.06669 26.6595 7.40002C28.0062 6.73336 29.5262 6.40002 31.2195 6.40002C32.8995 6.40002 34.4129 6.73336 35.7595 7.40002C37.1195 8.06669 38.1929 8.99336 38.9795 10.18C39.7662 11.3667 40.1595 12.7334 40.1595 14.28C40.1595 15.8267 39.7662 17.1934 38.9795 18.38C38.1929 19.5667 37.1195 20.4934 35.7595 21.16C34.4129 21.8267 32.8995 22.16 31.2195 22.16ZM29.0195 40L48.2195 7.00002H53.0795L33.8795 40H29.0195ZM31.2195 17.82C31.8729 17.82 32.4662 17.6734 32.9995 17.38C33.5462 17.0734 33.9862 16.6534 34.3195 16.12C34.6529 15.5867 34.8195 14.9734 34.8195 14.28C34.8195 13.5867 34.6529 12.9734 34.3195 12.44C33.9862 11.9067 33.5462 11.4934 32.9995 11.2C32.4662 10.8934 31.8729 10.74 31.2195 10.74C30.5662 10.74 29.9662 10.8934 29.4195 11.2C28.8729 11.4934 28.4329 11.9067 28.0995 12.44C27.7795 12.9734 27.6195 13.5867 27.6195 14.28C27.6195 14.9734 27.7795 15.5867 28.0995 16.12C28.4329 16.6534 28.8729 17.0734 29.4195 17.38C29.9662 17.6734 30.5662 17.82 31.2195 17.82ZM50.7595 40.6C49.0795 40.6 47.5662 40.2667 46.2195 39.6C44.8729 38.9334 43.7995 38.0067 42.9995 36.82C42.2129 35.6334 41.8195 34.2667 41.8195 32.72C41.8195 31.1734 42.2129 29.8067 42.9995 28.62C43.7995 27.4334 44.8729 26.5067 46.2195 25.84C47.5662 25.1734 49.0795 24.84 50.7595 24.84C52.4529 24.84 53.9729 25.1734 55.3195 25.84C56.6795 26.5067 57.7529 27.4334 58.5395 28.62C59.3262 29.8067 59.7195 31.1734 59.7195 32.72C59.7195 34.2667 59.3262 35.6334 58.5395 36.82C57.7529 38.0067 56.6795 38.9334 55.3195 39.6C53.9729 40.2667 52.4529 40.6 50.7595 40.6ZM50.7595 36.26C51.4129 36.26 52.0129 36.1134 52.5595 35.82C53.1062 35.5134 53.5395 35.0934 53.8595 34.56C54.1929 34.0267 54.3595 33.4134 54.3595 32.72C54.3595 32.0267 54.1929 31.4134 53.8595 30.88C53.5395 30.3467 53.1062 29.9334 52.5595 29.64C52.0129 29.3334 51.4129 29.18 50.7595 29.18C50.1195 29.18 49.5262 29.3334 48.9795 29.64C48.4329 29.9334 47.9929 30.3467 47.6595 30.88C47.3262 31.4134 47.1595 32.0267 47.1595 32.72C47.1595 33.4134 47.3262 34.0267 47.6595 34.56C47.9929 35.0934 48.4329 35.5134 48.9795 35.82C49.5262 36.1134 50.1195 36.26 50.7595 36.26Z" fill="#273C99"/>
</g>
</svg>
