<svg xmlns="http://www.w3.org/2000/svg" viewBox="0 0 100 100" preserveAspectRatio="xMidYMid" width="311" height="311" style="shape-rendering: auto; display: block; background: transparent;" xmlns:xlink="http://www.w3.org/1999/xlink"><g><g transform="rotate(0 50 50)">
  <rect fill="#2d2d2d" height="19" width="8" ry="3.99" rx="3.99" y="20.5" x="46">
    <animate repeatCount="indefinite" begin="-1.2676056338028168s" dur="1.408450704225352s" keyTimes="0;1" values="1;0" attributeName="opacity"></animate>
  </rect>
</g><g transform="rotate(36 50 50)">
  <rect fill="#2d2d2d" height="19" width="8" ry="3.99" rx="3.99" y="20.5" x="46">
    <animate repeatCount="indefinite" begin="-1.1267605633802815s" dur="1.408450704225352s" keyTimes="0;1" values="1;0" attributeName="opacity"></animate>
  </rect>
</g><g transform="rotate(72 50 50)">
  <rect fill="#2d2d2d" height="19" width="8" ry="3.99" rx="3.99" y="20.5" x="46">
    <animate repeatCount="indefinite" begin="-0.9859154929577464s" dur="1.408450704225352s" keyTimes="0;1" values="1;0" attributeName="opacity"></animate>
  </rect>
</g><g transform="rotate(108 50 50)">
  <rect fill="#2d2d2d" height="19" width="8" ry="3.99" rx="3.99" y="20.5" x="46">
    <animate repeatCount="indefinite" begin="-0.8450704225352113s" dur="1.408450704225352s" keyTimes="0;1" values="1;0" attributeName="opacity"></animate>
  </rect>
</g><g transform="rotate(144 50 50)">
  <rect fill="#2d2d2d" height="19" width="8" ry="3.99" rx="3.99" y="20.5" x="46">
    <animate repeatCount="indefinite" begin="-0.704225352112676s" dur="1.408450704225352s" keyTimes="0;1" values="1;0" attributeName="opacity"></animate>
  </rect>
</g><g transform="rotate(180 50 50)">
  <rect fill="#2d2d2d" height="19" width="8" ry="3.99" rx="3.99" y="20.5" x="46">
    <animate repeatCount="indefinite" begin="-0.5633802816901408s" dur="1.408450704225352s" keyTimes="0;1" values="1;0" attributeName="opacity"></animate>
  </rect>
</g><g transform="rotate(216 50 50)">
  <rect fill="#2d2d2d" height="19" width="8" ry="3.99" rx="3.99" y="20.5" x="46">
    <animate repeatCount="indefinite" begin="-0.4225352112676056s" dur="1.408450704225352s" keyTimes="0;1" values="1;0" attributeName="opacity"></animate>
  </rect>
</g><g transform="rotate(252 50 50)">
  <rect fill="#2d2d2d" height="19" width="8" ry="3.99" rx="3.99" y="20.5" x="46">
    <animate repeatCount="indefinite" begin="-0.2816901408450704s" dur="1.408450704225352s" keyTimes="0;1" values="1;0" attributeName="opacity"></animate>
  </rect>
</g><g transform="rotate(288 50 50)">
  <rect fill="#2d2d2d" height="19" width="8" ry="3.99" rx="3.99" y="20.5" x="46">
    <animate repeatCount="indefinite" begin="-0.1408450704225352s" dur="1.408450704225352s" keyTimes="0;1" values="1;0" attributeName="opacity"></animate>
  </rect>
</g><g transform="rotate(324 50 50)">
  <rect fill="#2d2d2d" height="19" width="8" ry="3.99" rx="3.99" y="20.5" x="46">
    <animate repeatCount="indefinite" begin="0s" dur="1.408450704225352s" keyTimes="0;1" values="1;0" attributeName="opacity"></animate>
  </rect>
</g><g></g></g><!-- [ldio] generated by https://loading.io --></svg>